<?xml version="1.0" encoding="utf-8"?>
<!-- Generator: Adobe Illustrator 18.0.0, SVG Export Plug-In . SVG Version: 6.00 Build 0)  -->
<!DOCTYPE svg PUBLIC "-//W3C//DTD SVG 1.1//EN" "http://www.w3.org/Graphics/SVG/1.1/DTD/svg11.dtd">
<svg version="1.1" id="Layer_1" xmlns="http://www.w3.org/2000/svg" xmlns:xlink="http://www.w3.org/1999/xlink" x="0px" y="0px"
	 viewBox="0 0 100 100" enable-background="new 0 0 100 100" xml:space="preserve">
<path fill="#FFFFFF" d="M13.8,67.8c-7.6,7.4-1.2,15.1-11.2,26.4c-4.5,5.1,18.7,3.6,30.2-7.8c4.9-4.8,3.5-11.8-1.7-16.9
	C25.8,64.4,18.7,63,13.8,67.8z M97.7,3.3C93.8-0.5,50.8,33.9,38,46.5c-6.4,6.2-8.5,9.6-10.4,12.1c-0.8,1.1,0.3,1.4,0.8,1.7
	c2.5,1.3,4.3,2.5,6.6,4.7c2.3,2.2,3.5,4,4.8,6.4c0.3,0.5,0.6,1.6,1.7,0.8c2.5-1.9,6-4,12.3-10.2C66.5,49.4,101.6,7.1,97.7,3.3z"/>
</svg>
