<?xml version="1.0" encoding="utf-8"?>
<!-- Generator: Adobe Illustrator 18.0.0, SVG Export Plug-In . SVG Version: 6.00 Build 0)  -->
<!DOCTYPE svg PUBLIC "-//W3C//DTD SVG 1.1//EN" "http://www.w3.org/Graphics/SVG/1.1/DTD/svg11.dtd">
<svg version="1.1" id="Layer_1" xmlns="http://www.w3.org/2000/svg" xmlns:xlink="http://www.w3.org/1999/xlink" x="0px" y="0px"
	 viewBox="0 0 100 100" enable-background="new 0 0 100 100" xml:space="preserve">
<path fill="#FFFFFF" d="M27.6,71.1C16.3,59,16.5,39.9,28.2,28.1c4.8-4.8,10.8-7.7,17.1-8.7L44.9,9c-8.8,1.1-17.3,5-24,11.7
	C5.2,36.6,5,62.2,20.3,78.4l-8.7,8.8l27.5,1.5l-0.1-29.2L27.6,71.1z M60.8,11.3l0.1,29.2l11.5-11.6C83.7,41,83.5,60.1,71.8,71.9
	C67,76.8,61,79.7,54.7,80.6L55.1,91c8.8-1.1,17.3-5,24-11.7C94.8,63.4,95,37.8,79.7,21.6l8.7-8.8L60.8,11.3z"/>
</svg>
