<?xml version="1.0" encoding="utf-8"?>
<!-- Generator: Adobe Illustrator 18.0.0, SVG Export Plug-In . SVG Version: 6.00 Build 0)  -->
<!DOCTYPE svg PUBLIC "-//W3C//DTD SVG 1.1//EN" "http://www.w3.org/Graphics/SVG/1.1/DTD/svg11.dtd">
<svg version="1.1" xmlns="http://www.w3.org/2000/svg" xmlns:xlink="http://www.w3.org/1999/xlink" x="0px" y="0px"
	 viewBox="0 0 1280 600" enable-background="new 0 0 1280 600" xml:space="preserve">
<g id="Layer_1" display="none">
	<g display="inline">
		<path fill="#F6D4C0" stroke="#F6D4C0" d="M-146.5-20.1l-1.9,532l0.9-245.5L-146.5-20.1z"/>
		<path fill="#FCEEE4" stroke="#FCEEE4" d="M-146.5-20.1l-0.9,286.5l6.5-188.5L-146.5-20.1z"/>
		<path fill="#FDF5ED" stroke="#FDF5ED" d="M-146.5-20.1l5.6,98l123.2,17.7L-146.5-20.1z"/>
		<path fill="#FCF0E9" stroke="#FCF0E9" d="M-146.5-20.1L-17.7,95.6L58.8-14.5L-146.5-20.1z"/>
		<path fill="#FBE9E0" stroke="#FBE9E0" d="M-146.5-20.1l205.3,5.6l130.7-29.9L-146.5-20.1z"/>
		<path fill="#F7DCD2" stroke="#F7DCD2" d="M-146.5-20.1l336-24.3l265.1-26.1L-146.5-20.1z"/>
		<path fill="#F8DFD2" stroke="#F8DFD2" d="M58.8-14.5L-17.7,95.6l191.3,52.3L58.8-14.5z"/>
		<path fill="#F8E0D6" stroke="#F8E0D6" d="M58.8-14.5l114.8,162.4l15.9-192.3L58.8-14.5z"/>
		<path fill="#F6D8CA" stroke="#F6D8CA" d="M189.5-44.4l-15.9,192.3L296.8,12.5L189.5-44.4z"/>
		<path fill="#F5CEC1" stroke="#F5CEC1" d="M189.5-44.4l107.3,56.9l157.7-83.1L189.5-44.4z"/>
		<path fill="#F3CBBB" stroke="#F3CBBB" d="M296.8,12.5L173.6,147.9l185.7-84L296.8,12.5z"/>
		<path fill="#F1C8BA" stroke="#F1C8BA" d="M296.8,12.5l62.5,51.3l95.2-134.4L296.8,12.5z"/>
		<path fill="#EFC1B5" stroke="#EFC1B5" d="M454.6-70.5L359.3,63.9l125.1,25.2L454.6-70.5z"/>
		<path fill="#EAB5AB" stroke="#EAB5AB" d="M454.6-70.5l29.9,159.6L644,10.7L454.6-70.5z"/>
		<path fill="#E6ADA4" stroke="#E6ADA4" d="M454.6-70.5L644,10.7l52.3-40.1L454.6-70.5z"/>
		<path fill="#E2A29C" stroke="#E2A29C" d="M454.6-70.5l241.7,41.1L966-52.8L454.6-70.5z"/>
		<path fill="#D88A88" stroke="#D88A88" d="M454.6-70.5L966-52.8l296.8-15.9L454.6-70.5z"/>
		<path fill="#E8AA9C" stroke="#E8AA9C" d="M644,10.7L484.4,89.1L602,125.5L644,10.7z"/>
		<path fill="#E39F92" stroke="#E39F92" d="M644,10.7l-42,114.8l160.5-23.3L644,10.7z"/>
		<path fill="#E2A29A" stroke="#E2A29A" d="M644,10.7l118.5,91.5L696.3-29.5L644,10.7z"/>
		<path fill="#DF9A94" stroke="#DF9A94" d="M696.3-29.5l66.3,131.6l98-89.6L696.3-29.5z"/>
		<path fill="#DB908D" stroke="#DB908D" d="M696.3-29.5l164.3,42L966-52.8L696.3-29.5z"/>
		<path fill="#DC8D84" stroke="#DC8D84" d="M860.6,12.5l-98,89.6l68.1,22.4L860.6,12.5z"/>
		<path fill="#D6807B" stroke="#D6807B" d="M860.6,12.5l-29.9,112l234.3-18.7L860.6,12.5z"/>
		<path fill="#D58683" stroke="#D58683" d="M860.6,12.5l204.4,93.3L966-52.8L860.6,12.5z"/>
		<path fill="#D28583" stroke="#D28583" d="M966-52.8l98.9,158.7l35.5-110.1L966-52.8z"/>
		<path fill="#D08583" stroke="#D08583" d="M966-52.8l134.4,48.5l162.4-64.4L966-52.8z"/>
		<path fill="#CF827D" stroke="#CF827D" d="M1100.4-4.3L1065,105.9l123.2-42.9L1100.4-4.3z"/>
		<path fill="#CE8483" stroke="#CE8483" d="M1100.4-4.3l87.7,67.2l74.7-131.6L1100.4-4.3z"/>
		<path fill="#CC8380" stroke="#CC8380" d="M1262.8-68.7l-74.7,131.6l52.3,75.6L1262.8-68.7z"/>
		<path fill="#C97B73" stroke="#C97B73" d="M1262.8-68.7l-22.4,207.2l96.1,91.5L1262.8-68.7z"/>
		<path fill="#FAE3D5" stroke="#FAE3D5" d="M-140.9,77.9l-6.5,188.5L-17.7,95.6L-140.9,77.9z"/>
		<path fill="#F6D5C3" stroke="#F6D5C3" d="M-17.7,95.6l-129.7,170.8L14.9,216L-17.7,95.6z"/>
		<path fill="#F5D2C0" stroke="#F5D2C0" d="M-17.7,95.6L14.9,216l158.7-68.1L-17.7,95.6z"/>
		<path fill="#F2C0A9" stroke="#F2C0A9" d="M173.6,147.9L14.9,216l155.9,84.9L173.6,147.9z"/>
		<path fill="#F1B69D" stroke="#F1B69D" d="M173.6,147.9l-2.8,153.1L322,216L173.6,147.9z"/>
		<path fill="#F2C0A9" stroke="#F2C0A9" d="M173.6,147.9L322,216l37.3-152.1L173.6,147.9z"/>
		<path fill="#EFB7A2" stroke="#EFB7A2" d="M359.3,63.9L322,216L484.4,89.1L359.3,63.9z"/>
		<path fill="#ECA890" stroke="#ECA890" d="M484.4,89.1L322,216l119.5,57.9L484.4,89.1z"/>
		<path fill="#E8A28E" stroke="#E8A28E" d="M484.4,89.1l-42.9,184.8L602,125.5L484.4,89.1z"/>
		<path fill="#E4917A" stroke="#E4917A" d="M602,125.5L441.5,273.9L619.8,300L602,125.5z"/>
		<path fill="#E18975" stroke="#E18975" d="M602,125.5L619.8,300l98-66.3L602,125.5z"/>
		<path fill="#E08F80" stroke="#E08F80" d="M602,125.5l115.7,108.3l44.8-131.6L602,125.5z"/>
		<path fill="#DB8477" stroke="#DB8477" d="M762.6,102.1l-44.8,131.6l112.9-109.2L762.6,102.1z"/>
		<path fill="#DA7A69" stroke="#DA7A69" d="M830.7,124.5L717.8,233.7L879.2,244L830.7,124.5z"/>
		<path fill="#D47468" stroke="#D47468" d="M830.7,124.5L879.2,244L1065,105.9L830.7,124.5z"/>
		<path fill="#D26959" stroke="#D26959" d="M1065,105.9L879.2,244l154.9,30.8L1065,105.9z"/>
		<path fill="#CE6A5B" stroke="#CE6A5B" d="M1065,105.9l-30.8,168.9l146.5-57.9L1065,105.9z"/>
		<path fill="#CD776C" stroke="#CD776C" d="M1065,105.9l115.7,111.1l7.5-154L1065,105.9z"/>
		<path fill="#CC7569" stroke="#CC7569" d="M1188.2,62.9l-7.5,154l59.7-78.4L1188.2,62.9z"/>
		<path fill="#C96B5C" stroke="#C96B5C" d="M1240.4,138.5l-59.7,78.4l155.9,13.1L1240.4,138.5z"/>
		<path fill="#F0B2A3" stroke="#F0B2A3" d="M-147.5,266.4l-0.9,245.5l41.1-141.9L-147.5,266.4z"/>
		<path fill="#F3C5B1" stroke="#F3C5B1" d="M-147.5,266.4l40.1,103.6L14.9,216L-147.5,266.4z"/>
		<path fill="#F1B6A2" stroke="#F1B6A2" d="M14.9,216l-122.3,154L7.5,408.3L14.9,216z"/>
		<path fill="#F1B39C" stroke="#F1B39C" d="M14.9,216L7.5,408.3l163.3-107.3L14.9,216z"/>
		<path fill="#EC9A87" stroke="#EC9A87" d="M170.8,300.9L7.5,408.3l166.1,29.9L170.8,300.9z"/>
		<path fill="#EC9580" stroke="#EC9580" d="M170.8,300.9l2.8,137.2l132.5-81.2L170.8,300.9z"/>
		<path fill="#EDA388" stroke="#EDA388" d="M170.8,300.9l135.3,56L322,216L170.8,300.9z"/>
		<path fill="#ED9E80" stroke="#ED9E80" d="M322,216l-15.9,140.9l135.3-83.1L322,216z"/>
		<path fill="#E98E74" stroke="#E98E74" d="M441.5,273.9l-135.3,83.1l165.2-17.7L441.5,273.9z"/>
		<path fill="#E5866F" stroke="#E5866F" d="M441.5,273.9l29.9,65.3L619.8,300L441.5,273.9z"/>
		<path fill="#E17962" stroke="#E17962" d="M619.8,300l-148.4,39.2l136.3,35.5L619.8,300z"/>
		<path fill="#DC6B59" stroke="#DC6B59" d="M619.8,300l-12.1,74.7l167.1-20.5L619.8,300z"/>
		<path fill="#DB735D" stroke="#DB735D" d="M619.8,300l154.9,54.1l-56.9-120.4L619.8,300z"/>
		<path fill="#D96D5A" stroke="#D96D5A" d="M717.8,233.7l56.9,120.4L879.2,244L717.8,233.7z"/>
		<path fill="#D65F4E" stroke="#D65F4E" d="M879.2,244L774.7,354.1l72.8,19.6L879.2,244z"/>
		<path fill="#D35747" stroke="#D35747" d="M879.2,244l-31.7,129.7l170.8-37.3L879.2,244z"/>
		<path fill="#D15C49" stroke="#D15C49" d="M879.2,244l139.1,92.4l15.9-61.6L879.2,244z"/>
		<path fill="#CE5241" stroke="#CE5241" d="M1034.2,274.8l-15.9,61.6l170.8,42L1034.2,274.8z"/>
		<path fill="#CB5A48" stroke="#CB5A48" d="M1034.2,274.8l154.9,103.6l-8.4-161.5L1034.2,274.8z"/>
		<path fill="#C85543" stroke="#C85543" d="M1180.7,216.9l8.4,161.5l130.7-28.9L1180.7,216.9z"/>
		<path fill="#C75F4C" stroke="#C75F4C" d="M1180.7,216.9l139.1,132.5l16.8-119.5L1180.7,216.9z"/>
		<path fill="#C2382A" stroke="#C2382A" d="M1336.6,230l-16.8,119.5l-7.5,504.9L1336.6,230z"/>
		<path fill="#EEA094" stroke="#EEA094" d="M-107.3,370l-41.1,141.9L7.5,408.3L-107.3,370z"/>
		<path fill="#EC9186" stroke="#EC9186" d="M7.5,408.3l-155.9,103.6L7.5,524V408.3z"/>
		<path fill="#EC8D80" stroke="#EC8D80" d="M7.5,408.3V524l166.1-85.9L7.5,408.3z"/>
		<path fill="#E97E70" stroke="#E97E70" d="M173.6,438.1L7.5,524l183.9,6.5L173.6,438.1z"/>
		<path fill="#E98270" stroke="#E98270" d="M173.6,438.1l17.7,92.4l114.8-173.6L173.6,438.1z"/>
		<path fill="#E7715E" stroke="#E7715E" d="M306.1,356.9L191.3,530.5l179.2,52.3L306.1,356.9z"/>
		<path fill="#E76C58" stroke="#E76C58" d="M306.1,356.9l64.4,225.9l122.3-85.9L306.1,356.9z"/>
		<path fill="#E67A62" stroke="#E67A62" d="M306.1,356.9l186.7,140l-21.5-157.7L306.1,356.9z"/>
		<path fill="#E16E59" stroke="#E16E59" d="M471.4,339.2l21.5,157.7l114.8-122.3L471.4,339.2z"/>
		<path fill="#DE5B4B" stroke="#DE5B4B" d="M607.6,374.7L492.8,496.9l132.5,14.9L607.6,374.7z"/>
		<path fill="#DA5545" stroke="#DA5545" d="M607.6,374.7l17.7,137.2l76.5-22.4L607.6,374.7z"/>
		<path fill="#DA5A4A" stroke="#DA5A4A" d="M607.6,374.7l94.3,114.8l72.8-135.3L607.6,374.7z"/>
		<path fill="#D65344" stroke="#D65344" d="M774.7,354.1l-72.8,135.3l145.6-115.7L774.7,354.1z"/>
		<path fill="#D44739" stroke="#D44739" d="M847.5,373.7L701.9,489.5l170.8,5.6L847.5,373.7z"/>
		<path fill="#D14839" stroke="#D14839" d="M847.5,373.7l25.2,121.3l145.6-158.7L847.5,373.7z"/>
		<path fill="#D03E2F" stroke="#D03E2F" d="M1018.3,336.4L872.7,495.1l159.6,40.1L1018.3,336.4z"/>
		<path fill="#CC4233" stroke="#CC4233" d="M1018.3,336.4l14,198.8l156.8-156.8L1018.3,336.4z"/>
		<path fill="#C83629" stroke="#C83629" d="M1189.1,378.4l-156.8,156.8l175.5,22.4L1189.1,378.4z"/>
		<path fill="#C5382B" stroke="#C5382B" d="M1189.1,378.4l18.7,179.2l59.7-81.2L1189.1,378.4z"/>
		<path fill="#C54436" stroke="#C54436" d="M1189.1,378.4l78.4,98l52.3-126.9L1189.1,378.4z"/>
		<path fill="#C22F22" stroke="#C22F22" d="M1319.8,349.5l-52.3,126.9l44.8,378L1319.8,349.5z"/>
		<path fill="#EA7F76" stroke="#EA7F76" d="M-148.4,511.9l89.6,282.8l-2.8-123.2L-148.4,511.9z"/>
		<path fill="#EA7E77" stroke="#EA7E77" d="M-148.4,511.9l86.8,159.6L7.5,524L-148.4,511.9z"/>
		<path fill="#E8776B" stroke="#E8776B" d="M7.5,524l-69.1,147.5l139.1-19.6L7.5,524z"/>
		<path fill="#E77064" stroke="#E77064" d="M7.5,524l70,127.9l113.9-121.3L7.5,524z"/>
		<path fill="#E76C5E" stroke="#E76C5E" d="M191.3,530.5L77.5,651.9l63.5-5.6L191.3,530.5z"/>
		<path fill="#E66354" stroke="#E66354" d="M191.3,530.5l-50.4,115.7l229.6-63.5L191.3,530.5z"/>
		<path fill="#E6604E" stroke="#E6604E" d="M370.5,582.8l-229.6,63.5l211.9,69.1L370.5,582.8z"/>
		<path fill="#E45844" stroke="#E45844" d="M370.5,582.8l-17.7,132.5l96.1-58.8L370.5,582.8z"/>
		<path fill="#E25342" stroke="#E25342" d="M370.5,582.8l78.4,73.7l43.9-159.6L370.5,582.8z"/>
		<path fill="#DF4F3E" stroke="#DF4F3E" d="M492.8,496.9L449,656.5l176.4-144.7L492.8,496.9z"/>
		<path fill="#DF4938" stroke="#DF4938" d="M625.4,511.9L449,656.5l118.5,61.6L625.4,511.9z"/>
		<path fill="#DA4331" stroke="#DA4331" d="M625.4,511.9l-57.9,206.3l187.6-75.6L625.4,511.9z"/>
		<path fill="#D84333" stroke="#D84333" d="M625.4,511.9l129.7,130.7l-53.2-153.1L625.4,511.9z"/>
		<path fill="#D53E2F" stroke="#D53E2F" d="M701.9,489.5l53.2,153.1l117.6-147.5L701.9,489.5z"/>
		<path fill="#D23627" stroke="#D23627" d="M872.7,495.1L755.1,642.5L925,702.3L872.7,495.1z"/>
		<path fill="#D03324" stroke="#D03324" d="M872.7,495.1L925,702.3l107.3-167.1L872.7,495.1z"/>
		<path fill="#CC3122" stroke="#CC3122" d="M1032.3,535.2L925,702.3l143.7-27.1L1032.3,535.2z"/>
		<path fill="#CB3122" stroke="#CB3122" d="M1032.3,535.2l36.4,140l49.5-10.3L1032.3,535.2z"/>
		<path fill="#C83121" stroke="#C83121" d="M1032.3,535.2l85.9,129.7l89.6-107.3L1032.3,535.2z"/>
		<path fill="#C73021" stroke="#C73021" d="M1207.8,557.6l-89.6,107.3l122.3,45.7L1207.8,557.6z"/>
		<path fill="#C63021" stroke="#C63021" d="M1207.8,557.6l32.7,153.1l27.1-234.3L1207.8,557.6z"/>
		<path fill="#C32F1F" stroke="#C32F1F" d="M1267.5,476.4l-27.1,234.3l71.9,143.7L1267.5,476.4z"/>
		<path fill="#E97A6F" stroke="#E97A6F" d="M-61.6,671.5l2.8,123.2l94.3,12.1L-61.6,671.5z"/>
		<path fill="#E8756A" stroke="#E8756A" d="M-61.6,671.5l97.1,135.3l42-154.9L-61.6,671.5z"/>
		<path fill="#E76F63" stroke="#E76F63" d="M77.5,651.9l-42,154.9L169.9,833L77.5,651.9z"/>
		<path fill="#E76C5D" stroke="#E76C5D" d="M77.5,651.9L169.9,833l-28.9-186.7L77.5,651.9z"/>
		<path fill="#E76555" stroke="#E76555" d="M140.9,646.3L169.9,833l182.9-117.6L140.9,646.3z"/>
		<path fill="#E6604E" stroke="#E6604E" d="M352.8,715.3L169.9,833l160.5-16.8L352.8,715.3z"/>
		<path fill="#E45845" stroke="#E45845" d="M352.8,715.3l-22.4,100.8l99.9-14L352.8,715.3z"/>
		<path fill="#E35543" stroke="#E35543" d="M352.8,715.3l77.5,86.8L449,656.5L352.8,715.3z"/>
		<path fill="#E04F3E" stroke="#E04F3E" d="M449,656.5l-18.7,145.6l137.2-84L449,656.5z"/>
		<path fill="#DF4B39" stroke="#DF4B39" d="M567.5,718.2l-137.2,84l159.6,6.5L567.5,718.2z"/>
		<path fill="#DB4333" stroke="#DB4333" d="M567.5,718.2l22.4,90.5l140-33.6L567.5,718.2z"/>
		<path fill="#D93E2F" stroke="#D93E2F" d="M567.5,718.2l162.4,56.9l25.2-132.5L567.5,718.2z"/>
		<path fill="#D43A29" stroke="#D43A29" d="M755.1,642.5l-25.2,132.5L925,702.3L755.1,642.5z"/>
		<path fill="#D23627" stroke="#D23627" d="M925,702.3l-195.1,72.8l180.1,7.5L925,702.3z"/>
		<path fill="#CE3222" stroke="#CE3222" d="M925,702.3L910,782.5l154.9,31.7L925,702.3z"/>
		<path fill="#CC3122" stroke="#CC3122" d="M925,702.3l140,112l3.7-139.1L925,702.3z"/>
		<path fill="#CB3122" stroke="#CB3122" d="M1068.7,675.2l-3.7,139.1l53.2-149.3L1068.7,675.2z"/>
		<path fill="#CB3122" stroke="#CB3122" d="M1118.2,664.9L1065,814.3l73.7,29.9L1118.2,664.9z"/>
		<path fill="#C73021" stroke="#C73021" d="M1118.2,664.9l20.5,179.2l101.7-133.5L1118.2,664.9z"/>
		<path fill="#C63020" stroke="#C63020" d="M1240.4,710.7l-101.7,133.5l173.6,10.3L1240.4,710.7z"/>
		<path fill="#E87366" stroke="#E87366" d="M-58.8,794.7L169.9,833L35.5,806.8L-58.8,794.7z"/>
		<path fill="#D23525" stroke="#D23525" d="M169.9,833l1142.4,21.5l-173.6-10.3L169.9,833z"/>
		<path fill="#DB4333" stroke="#DB4333" d="M169.9,833l968.8,11.2l-548.8-35.5L169.9,833z"/>
		<path fill="#E55A46" stroke="#E55A46" d="M169.9,833l420-24.3l-259.5,7.5L169.9,833z"/>
		<path fill="#E15340" stroke="#E15340" d="M330.4,816.1l259.5-7.5l-159.6-6.5L330.4,816.1z"/>
		<path fill="#D23525" stroke="#D23525" d="M589.9,808.7l548.8,35.5L910,782.5L589.9,808.7z"/>
		<path fill="#D53B2C" stroke="#D53B2C" d="M589.9,808.7L910,782.5l-180.1-7.5L589.9,808.7z"/>
		<path fill="#CB3122" stroke="#CB3122" d="M910,782.5l228.7,61.6l-73.7-29.9L910,782.5z"/>
	</g>
</g>
<g id="Layer_2">
	<g>
		<path fill="#F0F8FC" stroke="#F0F8FC" d="M1460.9,859.1l7.7-367.4l-30,143.1L1460.9,859.1z"/>
		<path fill="#FCFDFF" stroke="#FCFDFF" d="M1460.9,859.1l-22.2-224.3l-13.5,118.9L1460.9,859.1z"/>
		<path fill="#FAFBFD" stroke="#FAFBFD" d="M1460.9,859.1l-35.8-105.4l-153.7,86L1460.9,859.1z"/>
		<path fill="#F2F6FB" stroke="#F2F6FB" d="M1460.9,859.1l-189.5-19.3l-88,81.2L1460.9,859.1z"/>
		<path fill="#F0F6FB" stroke="#F0F6FB" d="M1271.4,839.8l153.7-86l-191.4-30.9L1271.4,839.8z"/>
		<path fill="#E8F1F9" stroke="#E8F1F9" d="M1271.4,839.8l-37.7-117l-85.1,54.1L1271.4,839.8z"/>
		<path fill="#E9EFF8" stroke="#E9EFF8" d="M1271.4,839.8l-122.8-62.8l34.8,144.1L1271.4,839.8z"/>
		<path fill="#E2EBF5" stroke="#E2EBF5" d="M1183.4,921l-34.8-144.1l-119.9,53.2L1183.4,921z"/>
		<path fill="#D9E7F0" stroke="#D9E7F0" d="M1183.4,921l-154.7-90.9L816,861L1183.4,921z"/>
		<path fill="#C3DAE8" stroke="#C3DAE8" d="M1183.4,921L816,861l-427.3,82.2L1183.4,921z"/>
		<path fill="#DAE8F1" stroke="#DAE8F1" d="M1028.7,830.1l119.9-53.2l-211.7-15.5L1028.7,830.1z"/>
		<path fill="#D2E3ED" stroke="#D2E3ED" d="M1028.7,830.1l-91.8-68.6L816,861L1028.7,830.1z"/>
		<path fill="#C9DEEC" stroke="#C9DEEC" d="M816,861l120.9-99.6L816,777.9V861z"/>
		<path fill="#C0D8E9" stroke="#C0D8E9" d="M816,861v-83.1l-149.9,78.3L816,861z"/>
		<path fill="#B7D2E4" stroke="#B7D2E4" d="M816,861l-149.9-4.8l-59.9,15.5L816,861z"/>
		<path fill="#ACC9E0" stroke="#ACC9E0" d="M816,861l-209.8,10.6l-217.5,71.5L816,861z"/>
		<path fill="#B8D5E6" stroke="#B8D5E6" d="M666.1,856.2L816,777.9L679.6,717L666.1,856.2z"/>
		<path fill="#ADCCE0" stroke="#ADCCE0" d="M666.1,856.2L679.6,717l-144.1,83.1L666.1,856.2z"/>
		<path fill="#ACC9E0" stroke="#ACC9E0" d="M666.1,856.2l-130.5-56.1l70.6,71.5L666.1,856.2z"/>
		<path fill="#A0BFD9" stroke="#A0BFD9" d="M606.2,871.7l-70.6-71.5l-147,143.1L606.2,871.7z"/>
		<path fill="#99B7D3" stroke="#99B7D3" d="M388.6,943.2l147-143.1l-110.2-45.4L388.6,943.2z"/>
		<path fill="#91AFCE" stroke="#91AFCE" d="M388.6,943.2l36.7-188.5l-103.5,44.5L388.6,943.2z"/>
		<path fill="#8EABCA" stroke="#8EABCA" d="M388.6,943.2l-66.7-144.1l-44.5,87L388.6,943.2z"/>
		<path fill="#88A4C6" stroke="#88A4C6" d="M388.6,943.2l-111.2-57l-119.9,59L388.6,943.2z"/>
		<path fill="#859EC0" stroke="#859EC0" d="M277.5,886.2l44.5-87L70.5,754.7L277.5,886.2z"/>
		<path fill="#8397BC" stroke="#8397BC" d="M277.5,886.2L70.5,754.7l87,190.5L277.5,886.2z"/>
		<path fill="#808CB5" stroke="#808CB5" d="M157.6,945.2l-87-190.5L-33.9,864.9L157.6,945.2z"/>
		<path fill="#7E84AE" stroke="#7E84AE" d="M-33.9,864.9L70.5,754.7l-134.4-2.9L-33.9,864.9z"/>
		<path fill="#EBF7FC" stroke="#EBF7FC" d="M1425.1,753.7l13.5-118.9L1295.5,600L1425.1,753.7z"/>
		<path fill="#EBF7FC" stroke="#EBF7FC" d="M1425.1,753.7L1295.5,600l-61.9,122.8L1425.1,753.7z"/>
		<path fill="#D7ECF9" stroke="#D7ECF9" d="M1233.6,722.8l61.9-122.8l-204-31.9L1233.6,722.8z"/>
		<path fill="#DDEDF7" stroke="#DDEDF7" d="M1233.6,722.8l-142.1-154.7l57,208.8L1233.6,722.8z"/>
		<path fill="#D7EAF2" stroke="#D7EAF2" d="M1148.6,776.9l-57-208.8L936.8,761.5L1148.6,776.9z"/>
		<path fill="#C5E2EF" stroke="#C5E2EF" d="M936.8,761.5l154.7-193.4l-91.8-4.8L936.8,761.5z"/>
		<path fill="#BBDDED" stroke="#BBDDED" d="M936.8,761.5l62.8-198.2l-181.8-23.2L936.8,761.5z"/>
		<path fill="#C1DCEA" stroke="#C1DCEA" d="M936.8,761.5L817.9,540.1L816,777.9L936.8,761.5z"/>
		<path fill="#B5D7E8" stroke="#B5D7E8" d="M816,777.9l1.9-237.8L679.6,717L816,777.9z"/>
		<path fill="#A7CFE5" stroke="#A7CFE5" d="M679.6,717l138.3-176.9L668,612.6L679.6,717z"/>
		<path fill="#9CC6DF" stroke="#9CC6DF" d="M679.6,717L668,612.6l-124.7-45.4L679.6,717z"/>
		<path fill="#A1C6DE" stroke="#A1C6DE" d="M679.6,717L543.3,567.1l-7.7,233L679.6,717z"/>
		<path fill="#92BBD8" stroke="#92BBD8" d="M535.6,800.1l7.7-233l-110.2,69.6L535.6,800.1z"/>
		<path fill="#96BAD5" stroke="#96BAD5" d="M535.6,800.1L433.1,636.7l-7.7,118L535.6,800.1z"/>
		<path fill="#87AFCE" stroke="#87AFCE" d="M425.4,754.7l7.7-118l-126.7-19.3L425.4,754.7z"/>
		<path fill="#89ADCC" stroke="#89ADCC" d="M425.4,754.7L306.5,617.4l15.5,181.8L425.4,754.7z"/>
		<path fill="#7BA0C4" stroke="#7BA0C4" d="M321.9,799.2l-15.5-181.8L175,598.1L321.9,799.2z"/>
		<path fill="#7F99BE" stroke="#7F99BE" d="M321.9,799.2L175,598.1L70.5,754.7L321.9,799.2z"/>
		<path fill="#728BB6" stroke="#728BB6" d="M70.5,754.7L175,598.1L3.8,608.7L70.5,754.7z"/>
		<path fill="#7A85AF" stroke="#7A85AF" d="M70.5,754.7l-66.7-146l-67.7,143.1L70.5,754.7z"/>
		<path fill="#5B78AD" stroke="#5B78AD" d="M-63.8,751.8L3.8,608.7l-18.4-315.2L-63.8,751.8z"/>
		<path fill="#375FA0" stroke="#375FA0" d="M-63.8,751.8l49.3-458.3l-52.2-123.8L-63.8,751.8z"/>
		<path fill="#DDF1FB" stroke="#DDF1FB" d="M1438.6,634.8l30-143.1L1295.5,600L1438.6,634.8z"/>
		<path fill="#C8E4F6" stroke="#C8E4F6" d="M1295.5,600l173.1-108.3l-135.4-88.9L1295.5,600z"/>
		<path fill="#BADCF3" stroke="#BADCF3" d="M1295.5,600l37.7-197.2l-233,59.9L1295.5,600z"/>
		<path fill="#BFDFF4" stroke="#BFDFF4" d="M1295.5,600l-195.3-137.3l-8.7,105.4L1295.5,600z"/>
		<path fill="#B4DAF1" stroke="#B4DAF1" d="M1091.5,568.1l8.7-105.4L999.7,563.3L1091.5,568.1z"/>
		<path fill="#A7D2EF" stroke="#A7D2EF" d="M999.7,563.3l100.6-100.6l-153.7-21.3L999.7,563.3z"/>
		<path fill="#A6D0EB" stroke="#A6D0EB" d="M999.7,563.3l-53.2-121.8l-128.6,98.6L999.7,563.3z"/>
		<path fill="#95C7E9" stroke="#95C7E9" d="M817.9,540.1l128.6-98.6L875,429.8L817.9,540.1z"/>
		<path fill="#91C4E8" stroke="#91C4E8" d="M817.9,540.1l57-110.2L698,491.7L817.9,540.1z"/>
		<path fill="#98C8E5" stroke="#98C8E5" d="M817.9,540.1L698,491.7l-30,120.9L817.9,540.1z"/>
		<path fill="#8EC0E1" stroke="#8EC0E1" d="M668,612.6l30-120.9l-154.7,75.4L668,612.6z"/>
		<path fill="#7FB5DD" stroke="#7FB5DD" d="M543.3,567.1L698,491.7l-162.4-35.8L543.3,567.1z"/>
		<path fill="#73ACD8" stroke="#73ACD8" d="M543.3,567.1l-7.7-111.2l-79.3,16.4L543.3,567.1z"/>
		<path fill="#7DB1D5" stroke="#7DB1D5" d="M543.3,567.1l-87-94.8l-23.2,164.4L543.3,567.1z"/>
		<path fill="#78AACF" stroke="#78AACF" d="M433.1,636.7l23.2-164.4l-149.9,145L433.1,636.7z"/>
		<path fill="#6699C7" stroke="#6699C7" d="M306.5,617.4l149.9-145l-246.5,34.8L306.5,617.4z"/>
		<path fill="#6A95C0" stroke="#6A95C0" d="M306.5,617.4l-96.7-110.2L175,598.1L306.5,617.4z"/>
		<path fill="#5C86B9" stroke="#5C86B9" d="M175,598.1l34.8-90.9L69.6,488.8L175,598.1z"/>
		<path fill="#6184B5" stroke="#6184B5" d="M175,598.1L69.6,488.8L3.8,608.7L175,598.1z"/>
		<path fill="#5176B0" stroke="#5176B0" d="M3.8,608.7l65.7-119.9l-34.8-82.2L3.8,608.7z"/>
		<path fill="#3F68A9" stroke="#3F68A9" d="M3.8,608.7l30.9-202.1l-49.3-113.1L3.8,608.7z"/>
		<path fill="#98B4DA" stroke="#98B4DA" d="M1468.6,491.7l-15.5-464.1l-10.6,231.1L1468.6,491.7z"/>
		<path fill="#ABCFED" stroke="#ABCFED" d="M1468.6,491.7l-26.1-233l-109.3,144.1L1468.6,491.7z"/>
		<path fill="#9CC2E6" stroke="#9CC2E6" d="M1333.2,402.8l109.3-144.1L1281,358.3L1333.2,402.8z"/>
		<path fill="#A3CAEB" stroke="#A3CAEB" d="M1333.2,402.8l-52.2-44.5l-180.8,104.4L1333.2,402.8z"/>
		<path fill="#8FBBE3" stroke="#8FBBE3" d="M1100.2,462.7L1281,358.3l-188.5-101.5L1100.2,462.7z"/>
		<path fill="#85B2DB" stroke="#85B2DB" d="M1100.2,462.7l-7.7-205.9l-52.2,16.4L1100.2,462.7z"/>
		<path fill="#8EBEE2" stroke="#8EBEE2" d="M1100.2,462.7l-59.9-189.5l-93.8,168.2L1100.2,462.7z"/>
		<path fill="#80B2DC" stroke="#80B2DC" d="M946.5,441.4l93.8-168.2l-173.1,67.7L946.5,441.4z"/>
		<path fill="#85BAE1" stroke="#85BAE1" d="M946.5,441.4l-79.3-100.5l7.7,88.9L946.5,441.4z"/>
		<path fill="#82B9E1" stroke="#82B9E1" d="M875,429.8l-7.7-88.9L698,491.7L875,429.8z"/>
		<path fill="#6EA8D6" stroke="#6EA8D6" d="M698,491.7l169.2-150.8l-182.7-77.3L698,491.7z"/>
		<path fill="#68A4D5" stroke="#68A4D5" d="M698,491.7l-13.5-228.2L535.6,455.9L698,491.7z"/>
		<path fill="#548FC6" stroke="#548FC6" d="M535.6,455.9l148.9-192.4L557.8,251L535.6,455.9z"/>
		<path fill="#4F8CC5" stroke="#4F8CC5" d="M535.6,455.9l22.2-205l-95.7,78.3L535.6,455.9z"/>
		<path fill="#5C98CD" stroke="#5C98CD" d="M535.6,455.9l-73.5-126.7l-5.8,143.1L535.6,455.9z"/>
		<path fill="#4985BE" stroke="#4985BE" d="M456.3,472.4l5.8-143.1l-243.6,16.4L456.3,472.4z"/>
		<path fill="#5088C0" stroke="#5088C0" d="M456.3,472.4L218.5,345.7l-8.7,161.5L456.3,472.4z"/>
		<path fill="#4A7BB6" stroke="#4A7BB6" d="M209.8,507.2l8.7-161.5L69.6,488.8L209.8,507.2z"/>
		<path fill="#3D6FAE" stroke="#3D6FAE" d="M69.6,488.8l148.9-143.1L34.8,406.6L69.6,488.8z"/>
		<path fill="#2D61A4" stroke="#2D61A4" d="M34.8,406.6l183.7-60.9l-82.2-84.1L34.8,406.6z"/>
		<path fill="#28539A" stroke="#28539A" d="M34.8,406.6l101.5-145l-150.8,31.9L34.8,406.6z"/>
		<path fill="#8898C6" stroke="#8898C6" d="M1442.5,258.7l10.6-231.1l-19.3,149.9L1442.5,258.7z"/>
		<path fill="#8FA6D1" stroke="#8FA6D1" d="M1442.5,258.7l-8.7-81.2l-102.5,25.1L1442.5,258.7z"/>
		<path fill="#94B2DC" stroke="#94B2DC" d="M1442.5,258.7l-111.2-56.1L1281,358.3L1442.5,258.7z"/>
		<path fill="#89A8D4" stroke="#89A8D4" d="M1281,358.3l50.3-155.7l-217.5,6.8L1281,358.3z"/>
		<path fill="#84A8D4" stroke="#84A8D4" d="M1281,358.3l-167.3-148.9l-21.3,47.4L1281,358.3z"/>
		<path fill="#789BCB" stroke="#789BCB" d="M1092.5,256.8l21.3-47.4l-73.5,63.8L1092.5,256.8z"/>
		<path fill="#6F8FC3" stroke="#6F8FC3" d="M1040.3,273.2l73.5-63.8l-150.8-88L1040.3,273.2z"/>
		<path fill="#6E96C6" stroke="#6E96C6" d="M1040.3,273.2l-77.3-151.8l-95.7,219.5L1040.3,273.2z"/>
		<path fill="#6087BD" stroke="#6087BD" d="M867.2,340.9l95.7-219.5l-174,20.3L867.2,340.9z"/>
		<path fill="#5D8DC2" stroke="#5D8DC2" d="M867.2,340.9l-78.3-199.2L684.5,263.5L867.2,340.9z"/>
		<path fill="#4B76B2" stroke="#4B76B2" d="M684.5,263.5l104.4-121.8l-121.8-24.2L684.5,263.5z"/>
		<path fill="#4372B1" stroke="#4372B1" d="M684.5,263.5l-17.4-146l-101.5,68.7L684.5,263.5z"/>
		<path fill="#487BB7" stroke="#487BB7" d="M684.5,263.5l-118.9-77.3l-7.7,64.8L684.5,263.5z"/>
		<path fill="#376AAB" stroke="#376AAB" d="M557.8,251l7.7-64.8l-180.8,9.7L557.8,251z"/>
		<path fill="#3C72B2" stroke="#3C72B2" d="M557.8,251l-173.1-55.1l77.3,133.4L557.8,251z"/>
		<path fill="#376DAE" stroke="#376DAE" d="M462.1,329.3l-77.3-133.4L218.5,345.7L462.1,329.3z"/>
		<path fill="#24539A" stroke="#24539A" d="M218.5,345.7l166.3-149.9l-154.7-88.9L218.5,345.7z"/>
		<path fill="#235097" stroke="#235097" d="M218.5,345.7l11.6-238.8l-93.8,154.7L218.5,345.7z"/>
		<path fill="#153E86" stroke="#153E86" d="M136.3,261.6l93.8-154.7L117,127.2L136.3,261.6z"/>
		<path fill="#16428B" stroke="#16428B" d="M136.3,261.6L117,127.2L-14.5,293.5L136.3,261.6z"/>
		<path fill="#1D387D" stroke="#1D387D" d="M-14.5,293.5L117,127.2l-183.7,42.5L-14.5,293.5z"/>
		<path fill="#8392C3" stroke="#8392C3" d="M1433.8,177.5l19.3-149.9l-121.8,175L1433.8,177.5z"/>
		<path fill="#7983B9" stroke="#7983B9" d="M1331.3,202.6l121.8-175L1282-5.2L1331.3,202.6z"/>
		<path fill="#758ABE" stroke="#758ABE" d="M1331.3,202.6L1282-5.2l-168.2,214.6L1331.3,202.6z"/>
		<path fill="#6778B1" stroke="#6778B1" d="M1113.8,209.4L1282-5.2l-185.6,36.7L1113.8,209.4z"/>
		<path fill="#6279B2" stroke="#6279B2" d="M1113.8,209.4l-17.4-177.9l-95.7,24.2L1113.8,209.4z"/>
		<path fill="#637FB6" stroke="#637FB6" d="M1113.8,209.4L1000.6,55.7l-37.7,65.7L1113.8,209.4z"/>
		<path fill="#546DA8" stroke="#546DA8" d="M962.9,121.4l37.7-65.7L858.5,42.1L962.9,121.4z"/>
		<path fill="#5070AC" stroke="#5070AC" d="M962.9,121.4L858.5,42.1l-69.6,99.6L962.9,121.4z"/>
		<path fill="#4162A5" stroke="#4162A5" d="M788.9,141.7l69.6-99.6L675.8,27.6L788.9,141.7z"/>
		<path fill="#3F63A6" stroke="#3F63A6" d="M788.9,141.7L675.8,27.6l-8.7,89.9L788.9,141.7z"/>
		<path fill="#305497" stroke="#305497" d="M667.1,117.5l8.7-89.9l-147-29L667.1,117.5z"/>
		<path fill="#2E5A9F" stroke="#2E5A9F" d="M667.1,117.5L528.8-1.4l36.7,187.6L667.1,117.5z"/>
		<path fill="#224892" stroke="#224892" d="M565.6,186.2L528.8-1.4l-146,28L565.6,186.2z"/>
		<path fill="#28539B" stroke="#28539B" d="M565.6,186.2L382.8,26.7l1.9,169.2L565.6,186.2z"/>
		<path fill="#18418B" stroke="#18418B" d="M384.8,195.9l-1.9-169.2l-152.8,80.3L384.8,195.9z"/>
		<path fill="#1B397A" stroke="#1B397A" d="M230.1,106.9l152.8-80.3l-69.6-29L230.1,106.9z"/>
		<path fill="#1F3268" stroke="#1F3268" d="M230.1,106.9L313.2-2.3l-242.7-29L230.1,106.9z"/>
		<path fill="#203167" stroke="#203167" d="M230.1,106.9L70.5-31.3L117,127.2L230.1,106.9z"/>
		<path fill="#1F2B59" stroke="#1F2B59" d="M117,127.2L70.5-31.3L2.9-26.5L117,127.2z"/>
		<path fill="#202E61" stroke="#202E61" d="M117,127.2L2.9-26.5l-69.6,196.3L117,127.2z"/>
		<path fill="#31528E" stroke="#31528E" d="M1282-5.2L70.5-31.3l458.3,30L1282-5.2z"/>
		<path fill="#4E689E" stroke="#4E689E" d="M1282-5.2L528.8-1.4l329.7,43.5L1282-5.2z"/>
		<path fill="#6071A5" stroke="#6071A5" d="M1282-5.2L858.5,42.1l237.8-10.6L1282-5.2z"/>
		<path fill="#576DA5" stroke="#576DA5" d="M1096.4,31.5L858.5,42.1l142.1,13.5L1096.4,31.5z"/>
		<path fill="#395A98" stroke="#395A98" d="M858.5,42.1L528.8-1.4l147,29L858.5,42.1z"/>
		<path fill="#1C3670" stroke="#1C3670" d="M528.8-1.4l-458.3-30l242.7,29L528.8-1.4z"/>
		<path fill="#143F81" stroke="#143F81" d="M528.8-1.4l-215.6-1l69.6,29L528.8-1.4z"/>
	</g>
</g>
<g id="Layer_3" display="none">
	<g display="inline">
		<path fill="#DCEEEB" stroke="#DCEEEB" d="M1326,693.7l7.7-508.7l-23.1,264.2L1326,693.7z"/>
		<path fill="#F6FAFB" stroke="#F6FAFB" d="M1326,693.7l-15.4-244.5L1271.2,610L1326,693.7z"/>
		<path fill="#FCFDFF" stroke="#FCFDFF" d="M1326,693.7l-54.7-83.8l-67.5,102.6L1326,693.7z"/>
		<path fill="#EDF6F8" stroke="#EDF6F8" d="M1326,693.7l-122.3,18.8l-424,70.1L1326,693.7z"/>
		<path fill="#F2F9FB" stroke="#F2F9FB" d="M1203.7,712.6l67.5-102.6l-138.5-25.6L1203.7,712.6z"/>
		<path fill="#EDF7F8" stroke="#EDF7F8" d="M1203.7,712.6l-71-128.2l-66.7,116.3L1203.7,712.6z"/>
		<path fill="#E8F5F5" stroke="#E8F5F5" d="M1203.7,712.6l-137.6-12L888.2,745L1203.7,712.6z"/>
		<path fill="#DEF0F1" stroke="#DEF0F1" d="M1203.7,712.6L888.2,745l-108.6,37.6L1203.7,712.6z"/>
		<path fill="#E5F3F4" stroke="#E5F3F4" d="M1066.1,700.6l66.7-116.3l-115.4,14.5L1066.1,700.6z"/>
		<path fill="#DFF0F1" stroke="#DFF0F1" d="M1066.1,700.6l-48.7-101.7l-82.9,12.8L1066.1,700.6z"/>
		<path fill="#DEF0F1" stroke="#DEF0F1" d="M1066.1,700.6l-131.7-88.9L888.2,745L1066.1,700.6z"/>
		<path fill="#D1EAE6" stroke="#D1EAE6" d="M888.2,745l46.2-133.4l-206,38.5L888.2,745z"/>
		<path fill="#CCE6E0" stroke="#CCE6E0" d="M888.2,745l-159.9-94.9l51.3,132.5L888.2,745z"/>
		<path fill="#C5E1D7" stroke="#C5E1D7" d="M779.7,782.7l-51.3-132.5L688.2,716L779.7,782.7z"/>
		<path fill="#B7D7C8" stroke="#B7D7C8" d="M779.7,782.7L688.2,716L383,787.8L779.7,782.7z"/>
		<path fill="#BEDDD2" stroke="#BEDDD2" d="M688.2,716l40.2-65.8l-88.1-4.3L688.2,716z"/>
		<path fill="#B7D7C8" stroke="#B7D7C8" d="M688.2,716l-47.9-70.1l-112,47.9L688.2,716z"/>
		<path fill="#ADCEBB" stroke="#ADCEBB" d="M688.2,716l-159.9-22.2l-145.3,94L688.2,716z"/>
		<path fill="#AFD0BC" stroke="#AFD0BC" d="M528.3,693.7l112-47.9l-170.1,14.5L528.3,693.7z"/>
		<path fill="#A4C7AD" stroke="#A4C7AD" d="M528.3,693.7l-58.1-33.3L383,787.8L528.3,693.7z"/>
		<path fill="#A1C3A6" stroke="#A1C3A6" d="M383,787.8l87.2-127.4l-77.8-75.2L383,787.8z"/>
		<path fill="#9ABD9E" stroke="#9ABD9E" d="M383,787.8l9.4-202.6l-90.6,201.8L383,787.8z"/>
		<path fill="#93B795" stroke="#93B795" d="M301.8,786.9l90.6-201.8l-166.7,37.6L301.8,786.9z"/>
		<path fill="#8DAE87" stroke="#8DAE87" d="M301.8,786.9l-76.1-164.1l-87.2,97.5L301.8,786.9z"/>
		<path fill="#8AA783" stroke="#8AA783" d="M301.8,786.9l-163.3-66.7l-124,22.2L301.8,786.9z"/>
		<path fill="#88A984" stroke="#88A984" d="M138.5,720.3l87.2-97.5l-79.5-58.1L138.5,720.3z"/>
		<path fill="#84A283" stroke="#84A283" d="M138.5,720.3l7.7-155.6L17.9,586.9L138.5,720.3z"/>
		<path fill="#879E82" stroke="#879E82" d="M138.5,720.3L17.9,586.9l-3.4,155.6L138.5,720.3z"/>
		<path fill="#809A82" stroke="#809A82" d="M14.5,742.5l3.4-155.6L14.5,533V742.5z"/>
		<path fill="#659173" stroke="#659173" d="M14.5,742.5V533L-46.2,55.1L14.5,742.5z"/>
		<path fill="#E8F5F8" stroke="#E8F5F8" d="M1271.2,610l39.3-160.7L1187.5,486L1271.2,610z"/>
		<path fill="#E8F5F8" stroke="#E8F5F8" d="M1271.2,610l-83.8-124l-54.7,98.3L1271.2,610z"/>
		<path fill="#DCEFF2" stroke="#DCEFF2" d="M1132.7,584.3l54.7-98.3l-186.4,8.5L1132.7,584.3z"/>
		<path fill="#DBEFF1" stroke="#DBEFF1" d="M1132.7,584.3l-131.7-89.8l16.2,104.3L1132.7,584.3z"/>
		<path fill="#D4ECEE" stroke="#D4ECEE" d="M1017.3,598.9l-16.2-104.3l-81.2,25.6L1017.3,598.9z"/>
		<path fill="#D5ECEE" stroke="#D5ECEE" d="M1017.3,598.9l-97.5-78.7l14.5,91.5L1017.3,598.9z"/>
		<path fill="#CCE8E5" stroke="#CCE8E5" d="M934.4,611.7l-14.5-91.5l-191.5,130L934.4,611.7z"/>
		<path fill="#C0E2DE" stroke="#C0E2DE" d="M728.4,650.1l191.5-130L752.3,486L728.4,650.1z"/>
		<path fill="#B9DFD5" stroke="#B9DFD5" d="M728.4,650.1L752.3,486l-112,159.9L728.4,650.1z"/>
		<path fill="#ADD9CF" stroke="#ADD9CF" d="M640.3,645.9l112-159.9l-124-53.9L640.3,645.9z"/>
		<path fill="#A2D2BF" stroke="#A2D2BF" d="M640.3,645.9l-12-213.7l-126.5,8.5L640.3,645.9z"/>
		<path fill="#A4CEBB" stroke="#A4CEBB" d="M640.3,645.9L501.8,440.7l-31.6,219.7L640.3,645.9z"/>
		<path fill="#9AC6AC" stroke="#9AC6AC" d="M470.2,660.4l31.6-219.7L392.4,585.2L470.2,660.4z"/>
		<path fill="#8DC2A5" stroke="#8DC2A5" d="M392.4,585.2l109.4-144.5l-76.1,17.1L392.4,585.2z"/>
		<path fill="#89BA9B" stroke="#89BA9B" d="M392.4,585.2l33.3-127.4l-208.6,59.8L392.4,585.2z"/>
		<path fill="#86B491" stroke="#86B491" d="M392.4,585.2l-175.3-67.5l8.5,105.2L392.4,585.2z"/>
		<path fill="#80AB84" stroke="#80AB84" d="M225.7,622.8l-8.5-105.2l-71,47L225.7,622.8z"/>
		<path fill="#7BA682" stroke="#7BA682" d="M146.2,564.6l71-47l-99.2-57.3L146.2,564.6z"/>
		<path fill="#79A182" stroke="#79A182" d="M146.2,564.6l-28.2-104.3L14.5,533L146.2,564.6z"/>
		<path fill="#7C9E82" stroke="#7C9E82" d="M146.2,564.6L14.5,533l3.4,53.9L146.2,564.6z"/>
		<path fill="#BFE0CE" stroke="#BFE0CE" d="M1310.6,449.2l23.1-264.2l-47,169.3L1310.6,449.2z"/>
		<path fill="#CAE6DF" stroke="#CAE6DF" d="M1310.6,449.2l-23.9-94.9l-110.3,11.1L1310.6,449.2z"/>
		<path fill="#D1EAE7" stroke="#D1EAE7" d="M1310.6,449.2l-134.2-83.8l11.1,120.5L1310.6,449.2z"/>
		<path fill="#C4E4DD" stroke="#C4E4DD" d="M1187.5,486l-11.1-120.5l-100,2.6L1187.5,486z"/>
		<path fill="#CAE7E4" stroke="#CAE7E4" d="M1187.5,486l-111.1-118l-75.2,126.5L1187.5,486z"/>
		<path fill="#B5DDD6" stroke="#B5DDD6" d="M1001.1,494.5l75.2-126.5l-159-42.7L1001.1,494.5z"/>
		<path fill="#BDE1DD" stroke="#BDE1DD" d="M1001.1,494.5l-83.8-169.3l2.6,194.9L1001.1,494.5z"/>
		<path fill="#B1DBD3" stroke="#B1DBD3" d="M919.9,520.2l-2.6-194.9L752.3,486L919.9,520.2z"/>
		<path fill="#9FD2C3" stroke="#9FD2C3" d="M752.3,486l165-160.7l-195.8,35L752.3,486z"/>
		<path fill="#9CD1BF" stroke="#9CD1BF" d="M752.3,486l-30.8-125.7l-93.2,71.8L752.3,486z"/>
		<path fill="#92CCB5" stroke="#92CCB5" d="M628.3,432.1l93.2-71.8l-88.9,29.9L628.3,432.1z"/>
		<path fill="#8AC8AB" stroke="#8AC8AB" d="M628.3,432.1l4.3-41.9l-116.3-35.1L628.3,432.1z"/>
		<path fill="#86C5A7" stroke="#86C5A7" d="M628.3,432.1l-112-76.9l-14.5,85.5L628.3,432.1z"/>
		<path fill="#81BF9D" stroke="#81BF9D" d="M501.8,440.7l14.5-85.5l-90.6,102.6L501.8,440.7z"/>
		<path fill="#75B68E" stroke="#75B68E" d="M425.7,457.8l90.6-102.6l-149.6-38.5L425.7,457.8z"/>
		<path fill="#6CAC7F" stroke="#6CAC7F" d="M425.7,457.8l-59-141.1L218,372.3L425.7,457.8z"/>
		<path fill="#74AD83" stroke="#74AD83" d="M425.7,457.8L218,372.3l-0.9,145.3L425.7,457.8z"/>
		<path fill="#6DA277" stroke="#6DA277" d="M217.1,517.6l0.9-145.3l-100,88.1L217.1,517.6z"/>
		<path fill="#619B6B" stroke="#619B6B" d="M117.9,460.3l100-88.1l-82.1-30.8L117.9,460.3z"/>
		<path fill="#61956C" stroke="#61956C" d="M117.9,460.3l18-118.8l-128.2,59L117.9,460.3z"/>
		<path fill="#6D9677" stroke="#6D9677" d="M117.9,460.3L7.7,400.5L14.5,533L117.9,460.3z"/>
		<path fill="#4E8056" stroke="#4E8056" d="M14.5,533L7.7,400.5L-46.2,55.1L14.5,533z"/>
		<path fill="#A8D1B5" stroke="#A8D1B5" d="M1286.6,354.3l47-169.3l-177,32.5L1286.6,354.3z"/>
		<path fill="#B2DAC6" stroke="#B2DAC6" d="M1286.6,354.3l-130-136.8l19.7,147.9L1286.6,354.3z"/>
		<path fill="#ACD8C4" stroke="#ACD8C4" d="M1176.3,365.5l-19.7-147.9L1076.3,368L1176.3,365.5z"/>
		<path fill="#9FD1B8" stroke="#9FD1B8" d="M1076.3,368l80.4-150.5l-130.8,41.9L1076.3,368z"/>
		<path fill="#A2D3BF" stroke="#A2D3BF" d="M1076.3,368l-50.4-108.6l-108.6,65.8L1076.3,368z"/>
		<path fill="#94CBB1" stroke="#94CBB1" d="M917.3,325.3l108.6-65.8L877.1,262L917.3,325.3z"/>
		<path fill="#93CCB1" stroke="#93CCB1" d="M917.3,325.3L877.1,262l-155.6,98.3L917.3,325.3z"/>
		<path fill="#83C09F" stroke="#83C09F" d="M721.5,360.3L877.1,262L795,212.4L721.5,360.3z"/>
		<path fill="#79B990" stroke="#79B990" d="M721.5,360.3L795,212.4l-180.4-2.6L721.5,360.3z"/>
		<path fill="#80C19E" stroke="#80C19E" d="M721.5,360.3L614.7,209.9l18,180.4L721.5,360.3z"/>
		<path fill="#79B992" stroke="#79B992" d="M632.6,390.2l-18-180.4l-98.3,145.3L632.6,390.2z"/>
		<path fill="#64A574" stroke="#64A574" d="M516.4,355.2l98.3-145.3l-89.8-30.8L516.4,355.2z"/>
		<path fill="#60A16E" stroke="#60A16E" d="M516.4,355.2l8.5-176.1l-112,75.2L516.4,355.2z"/>
		<path fill="#66A675" stroke="#66A675" d="M516.4,355.2L412.9,254.3l-46.2,62.4L516.4,355.2z"/>
		<path fill="#55945A" stroke="#55945A" d="M366.7,316.7l46.2-62.4l-187.2-0.9L366.7,316.7z"/>
		<path fill="#59965D" stroke="#59965D" d="M366.7,316.7l-141.1-63.3L218,372.3L366.7,316.7z"/>
		<path fill="#569157" stroke="#569157" d="M218,372.3l7.7-118.8l-89.8,88L218,372.3z"/>
		<path fill="#4C8446" stroke="#4C8446" d="M135.9,341.5l89.8-88l-70.1-21.4L135.9,341.5z"/>
		<path fill="#43793D" stroke="#43793D" d="M135.9,341.5l19.7-109.4l-165-48.7L135.9,341.5z"/>
		<path fill="#4D804F" stroke="#4D804F" d="M135.9,341.5L-9.4,183.4L7.7,400.5L135.9,341.5z"/>
		<path fill="#37672F" stroke="#37672F" d="M7.7,400.5L-9.4,183.4L-46.2,55.1L7.7,400.5z"/>
		<path fill="#8FB789" stroke="#8FB789" d="M1333.7,185.1l-3.4-75.2l-123.1-21.4L1333.7,185.1z"/>
		<path fill="#8EBC93" stroke="#8EBC93" d="M1333.7,185.1l-126.5-96.6l-50.4,129.1L1333.7,185.1z"/>
		<path fill="#83B284" stroke="#83B284" d="M1156.7,217.5l50.4-129.1l-144.5,0.9L1156.7,217.5z"/>
		<path fill="#8ABB96" stroke="#8ABB96" d="M1156.7,217.5l-94-128.2l-36.8,170.1L1156.7,217.5z"/>
		<path fill="#79AD80" stroke="#79AD80" d="M1025.9,259.4l36.8-170.1L890.8,63.7L1025.9,259.4z"/>
		<path fill="#7EB690" stroke="#7EB690" d="M1025.9,259.4L890.8,63.7L877.1,262L1025.9,259.4z"/>
		<path fill="#74AE82" stroke="#74AE82" d="M877.1,262l13.7-198.3L795,212.4L877.1,262z"/>
		<path fill="#639C69" stroke="#639C69" d="M795,212.4l95.8-148.8L742.9,52.5L795,212.4z"/>
		<path fill="#5F9961" stroke="#5F9961" d="M795,212.4L742.9,52.5l-48.7,40.2L795,212.4z"/>
		<path fill="#62A270" stroke="#62A270" d="M795,212.4L694.2,92.7l-79.5,117.1L795,212.4z"/>
		<path fill="#559153" stroke="#559153" d="M614.7,209.9l79.5-117.1L524,77.3L614.7,209.9z"/>
		<path fill="#539154" stroke="#539154" d="M614.7,209.9L524,77.3l0.9,101.7L614.7,209.9z"/>
		<path fill="#477F3C" stroke="#477F3C" d="M524.9,179.1L524,77.3l-144.5-12L524.9,179.1z"/>
		<path fill="#4C8746" stroke="#4C8746" d="M524.9,179.1L379.6,65.4l33.3,188.9L524.9,179.1z"/>
		<path fill="#417E35" stroke="#417E35" d="M412.9,254.3L379.6,65.4l-89.8,60.7L412.9,254.3z"/>
		<path fill="#488441" stroke="#488441" d="M412.9,254.3L289.8,126.1l-64.1,127.4L412.9,254.3z"/>
		<path fill="#3B7328" stroke="#3B7328" d="M225.7,253.5l64.1-127.4l-137.7-13.7L225.7,253.5z"/>
		<path fill="#3D7530" stroke="#3D7530" d="M225.7,253.5l-73.5-141.1l3.4,119.7L225.7,253.5z"/>
		<path fill="#376A26" stroke="#376A26" d="M155.6,232.1l-3.4-119.7l-161.6,71L155.6,232.1z"/>
		<path fill="#2B571A" stroke="#2B571A" d="M-9.4,183.4l161.6-71L-46.2,55.1L-9.4,183.4z"/>
		<path fill="#88A783" stroke="#88A783" d="M1330.2,109.8l-58.1-129.1l-65,107.7L1330.2,109.8z"/>
		<path fill="#809E80" stroke="#809E80" d="M1207.1,88.5l65-107.7l-134.2,30.8L1207.1,88.5z"/>
		<path fill="#7EA27E" stroke="#7EA27E" d="M1207.1,88.5l-69.3-76.9l-75.2,77.8L1207.1,88.5z"/>
		<path fill="#749579" stroke="#749579" d="M1062.6,89.3l75.2-77.8L994.2-68L1062.6,89.3z"/>
		<path fill="#6C9075" stroke="#6C9075" d="M1062.6,89.3L994.2-68L895.9,7.2L1062.6,89.3z"/>
		<path fill="#6D9875" stroke="#6D9875" d="M1062.6,89.3L895.9,7.2l-5.1,56.4L1062.6,89.3z"/>
		<path fill="#61906A" stroke="#61906A" d="M890.8,63.7l5.1-56.4l-153,45.3L890.8,63.7z"/>
		<path fill="#5B8466" stroke="#5B8466" d="M742.9,52.5l153-45.3l-96.6-77.8L742.9,52.5z"/>
		<path fill="#53805C" stroke="#53805C" d="M742.9,52.5l56.4-123.1L648,19.2L742.9,52.5z"/>
		<path fill="#55895A" stroke="#55895A" d="M742.9,52.5L648,19.2l46.2,73.5L742.9,52.5z"/>
		<path fill="#4F8451" stroke="#4F8451" d="M694.2,92.7L648,19.2L524,77.3L694.2,92.7z"/>
		<path fill="#457845" stroke="#457845" d="M524,77.3L648,19.2l-159-12L524,77.3z"/>
		<path fill="#3F7238" stroke="#3F7238" d="M524,77.3L489,7.2L379.6,65.4L524,77.3z"/>
		<path fill="#36622D" stroke="#36622D" d="M379.6,65.4L489,7.2L359-80L379.6,65.4z"/>
		<path fill="#2F5C25" stroke="#2F5C25" d="M379.6,65.4L359-80L288.9,6.4L379.6,65.4z"/>
		<path fill="#366825" stroke="#366825" d="M379.6,65.4l-90.6-59l0.9,119.7L379.6,65.4z"/>
		<path fill="#32641E" stroke="#32641E" d="M289.8,126.1L288.9,6.4l-136.8,106L289.8,126.1z"/>
		<path fill="#2A5519" stroke="#2A5519" d="M152.1,112.4l136.8-106L178.6-24.4L152.1,112.4z"/>
		<path fill="#244A15" stroke="#244A15" d="M152.1,112.4l26.5-136.8l-153-14.5L152.1,112.4z"/>
		<path fill="#234915" stroke="#234915" d="M152.1,112.4L25.6-38.9l-71.8,94L152.1,112.4z"/>
		<path fill="#77917C" stroke="#77917C" d="M1272.1-19.3L994.2-68l143.6,79.5L1272.1-19.3z"/>
		<path fill="#4C725A" stroke="#4C725A" d="M994.2-68L359-80l440.3,9.4L994.2-68z"/>
		<path fill="#61826D" stroke="#61826D" d="M994.2-68l-194.9-2.6l96.6,77.8L994.2-68z"/>
		<path fill="#3D6741" stroke="#3D6741" d="M799.3-70.6L359-80L489,7.2L799.3-70.6z"/>
		<path fill="#4A7852" stroke="#4A7852" d="M799.3-70.6L489,7.2l159,12L799.3-70.6z"/>
		<path fill="#214413" stroke="#214413" d="M359-80l-333.4,41l153,14.5L359-80z"/>
		<path fill="#274E1A" stroke="#274E1A" d="M359-80L178.6-24.4L288.9,6.4L359-80z"/>
	</g>
</g>
</svg>
