<?xml version="1.0" encoding="utf-8"?>
<!-- Generator: Adobe Illustrator 18.0.0, SVG Export Plug-In . SVG Version: 6.00 Build 0)  -->
<!DOCTYPE svg PUBLIC "-//W3C//DTD SVG 1.1//EN" "http://www.w3.org/Graphics/SVG/1.1/DTD/svg11.dtd">
<svg version="1.1" id="Layer_1" xmlns="http://www.w3.org/2000/svg" xmlns:xlink="http://www.w3.org/1999/xlink" x="0px" y="0px"
	 viewBox="0 0 100 100" enable-background="new 0 0 100 100" xml:space="preserve">
<g>
	<path fill="#FFFFFF" d="M50,40c-8.3,0-15,6.7-15,15c0,8.3,6.7,15,15,15c8.3,0,15-6.7,15-15C65,46.7,58.3,40,50,40z M90,25H78
		c-1.7,0-3.4-1.3-3.9-2.8l-3.1-9.3C70.4,11.3,68.7,10,67,10H33c-1.7,0-3.4,1.3-3.9,2.8l-3.1,9.3C25.4,23.7,23.7,25,22,25H10
		C4.5,25,0,29.5,0,35v45c0,5.5,4.5,10,10,10h80c5.5,0,10-4.5,10-10V35C100,29.5,95.5,25,90,25z M50,80c-13.8,0-25-11.2-25-25
		c0-13.8,11.2-25,25-25c13.8,0,25,11.2,25,25C75,68.8,63.8,80,50,80z M86.5,42c-1.9,0-3.5-1.6-3.5-3.5c0-1.9,1.6-3.5,3.5-3.5
		c1.9,0,3.5,1.6,3.5,3.5C90,40.4,88.4,42,86.5,42z"/>
</g>
</svg>
