<?xml version="1.0" encoding="utf-8"?>
<!-- Generator: Adobe Illustrator 18.0.0, SVG Export Plug-In . SVG Version: 6.00 Build 0)  -->
<!DOCTYPE svg PUBLIC "-//W3C//DTD SVG 1.1//EN" "http://www.w3.org/Graphics/SVG/1.1/DTD/svg11.dtd">
<svg version="1.1" id="Layer_1" xmlns="http://www.w3.org/2000/svg" xmlns:xlink="http://www.w3.org/1999/xlink" x="0px" y="0px"
	 viewBox="0 0 100 100" enable-background="new 0 0 100 100" xml:space="preserve">
<g>
	<path fill="#FFFFFF" d="M50,22C17.2,22,0,46.2,0,50c0,3.8,17.2,28,50,28c32.8,0,50-24.2,50-28C100,46.2,82.8,22,50,22z M50,71.5
		c-12.3,0-22.2-9.6-22.2-21.5c0-11.9,9.9-21.5,22.2-21.5c12.3,0,22.2,9.6,22.2,21.5C72.2,61.9,62.3,71.5,50,71.5z M50,50
		c-2-2.2,3.3-10.8,0-10.8c-6.1,0-11.1,4.8-11.1,10.8c0,5.9,5,10.8,11.1,10.8c6.1,0,11.1-4.8,11.1-10.8C61.1,47.3,51.7,51.9,50,50z"
		/>
</g>
</svg>
