<?xml version="1.0" encoding="utf-8"?>
<!-- Generator: Adobe Illustrator 18.0.0, SVG Export Plug-In . SVG Version: 6.00 Build 0)  -->
<!DOCTYPE svg PUBLIC "-//W3C//DTD SVG 1.1//EN" "http://www.w3.org/Graphics/SVG/1.1/DTD/svg11.dtd">
<svg version="1.1" id="Layer_1" xmlns="http://www.w3.org/2000/svg" xmlns:xlink="http://www.w3.org/1999/xlink" x="0px" y="0px"
	 viewBox="0 0 66 23" enable-background="new 0 0 66 23" xml:space="preserve">
<g>
	<path fill="#FFFFFF" d="M13.2,0.5h1.4v15c-1.3,0-2.6,0-3.9,0V8.9l-3.2,3.3H7.1L3.9,8.9v6.7c-1.3,0-2.6,0-3.9,0v-15h1.4L7.3,7
		L13.2,0.5z M12.8,14.1V4.2h-0.3L7.3,9.6L2.1,4.2H1.9v9.9h0.2V4.4L7.3,10l5.3-5.5v9.6H12.8z"/>
	<path fill="#FFFFFF" d="M17.5,8.1c0-10.3,15.4-10.3,15.4,0C32.8,18.5,17.5,18.5,17.5,8.1z M31,8.1c0-8-11.6-8-11.6,0
		C19.4,16.1,31,16.1,31,8.1z M19.6,8.1c0,7.8,11.2,7.7,11.2,0C30.8,0.4,19.6,0.3,19.6,8.1z M28.9,8.1c0,5.4-7.5,5.4-7.5,0
		C21.4,2.7,28.9,2.7,28.9,8.1z"/>
	<path fill="#FFFFFF" d="M34.8,8.1c0-10.3,15.4-10.3,15.4,0C50.2,18.5,34.8,18.5,34.8,8.1z M48.3,8.1c0-8-11.6-8-11.6,0
		C36.7,16.1,48.3,16.1,48.3,8.1z M36.9,8.1c0,7.8,11.2,7.7,11.2,0C48.1,0.4,36.9,0.3,36.9,8.1z M46.2,8.1c0,5.4-7.5,5.4-7.5,0
		C38.7,2.7,46.2,2.7,46.2,8.1z"/>
	<path fill="#FFFFFF" d="M58.7,15.6H53v-15h5.6C68.4,0.6,68.4,15.5,58.7,15.6z M54.9,13.9h3.7c7.4,0,7.4-11.8,0-11.8h-3.7V13.9z
		 M58.6,2.4h-3.5v11.3h3.5C65.8,13.7,65.8,2.4,58.6,2.4z M56.9,4.1h1.8c4.8,0,4.8,8,0,8h-1.8V4.1z"/>
	<path fill="#FFFFFF" d="M19.4,18.7c0.8,0,1.7,0.4,1.8,1.5c-0.3,0-0.6,0-1,0c-0.1-0.4-0.4-0.6-0.8-0.6c-0.6,0-1,0.4-1,1.1
		c0,0.6,0.4,1.1,1,1.1c0.4,0,0.8-0.2,0.9-0.6c0.3,0,0.6,0,1,0c-0.1,1.1-1,1.5-1.8,1.5c-1,0-2-0.7-2-2C17.4,19.3,18.4,18.7,19.4,18.7
		z"/>
	<path fill="#FFFFFF" d="M25.3,22.4v0.1h-1.1l-0.7-1.1H23v1.1c-0.3,0-0.7,0-1,0c0-1.3,0-2.6,0-3.9c0.6,0,1.1,0,1.7,0
		c1.5,0,1.8,1.8,0.8,2.5L25.3,22.4z M23.7,19.6c-0.2,0-0.5,0-0.7,0c0,0.3,0,0.6,0,1h0.7C24.3,20.6,24.3,19.6,23.7,19.6z"/>
	<path fill="#FFFFFF" d="M28.3,19.6c-0.6,0-0.9,0-1.4,0v0.5h1.3c0,0.3,0,0.6,0,0.9h-1.3c0,0.2,0,0.4,0,0.7c0.6,0,0.9,0,1.5,0
		c0,0.3,0,0.6,0,0.9c-0.9,0-1.6,0-2.5,0c0-1.3,0-2.6,0-3.9c0.9,0,1.5,0,2.4,0C28.3,19,28.3,19.3,28.3,19.6z"/>
	<path fill="#FFFFFF" d="M31.4,22.1h-1.5l-0.2,0.5h-1v-0.1l1.7-3.8h0.4l1.7,3.8v0.1h-1L31.4,22.1z M30.7,20.2l-0.4,1h0.9L30.7,20.2z
		"/>
	<path fill="#FFFFFF" d="M32.6,19.6c0-0.3,0-0.6,0-0.9h2.9c0,0.3,0,0.6,0,0.9h-0.9v3c-0.3,0-0.7,0-1,0v-3H32.6z"/>
	<path fill="#FFFFFF" d="M37.8,21.7c0,0.3,0,0.5,0,0.9c-0.7,0-1.3,0-2,0c0-0.3,0-0.5,0-0.9h0.5v-2.1h-0.5c0-0.3,0-0.5,0-0.9
		c0.6,0,1.3,0,1.9,0c0,0.3,0,0.5,0,0.9h-0.5v2.1H37.8z"/>
	<path fill="#FFFFFF" d="M38.2,20.7c0-2.7,4-2.7,4,0C42.2,23.3,38.2,23.3,38.2,20.7z M41.1,20.7c0-1.4-1.9-1.4-1.9,0
		C39.2,22.1,41.1,22.1,41.1,20.7z"/>
	<path fill="#FFFFFF" d="M43.9,20.7v1.9c-0.3,0-0.7,0-1,0v-3.9h0.4l2,1.9v-1.9c0.3,0,0.7,0,1,0v3.9h-0.4L43.9,20.7z"/>
	<path fill="#FFFFFF" d="M49.1,21.4c0-0.3-0.3-0.3-0.7-0.3C47.6,21,47,20.7,47,19.9c0-1.7,3-1.7,3,0c-0.3,0-0.6,0-0.9,0
		c0-0.5-1-0.5-1.1,0c0,0.3,0.3,0.4,0.6,0.4c0.8,0.1,1.5,0.2,1.5,1.2c0,1.6-3.2,1.7-3.1,0c0.3,0,0.6,0,1,0
		C47.9,21.9,49.1,21.9,49.1,21.4z"/>
</g>
</svg>
