<?xml version="1.0" encoding="utf-8"?>
<!-- Generator: Adobe Illustrator 18.0.0, SVG Export Plug-In . SVG Version: 6.00 Build 0)  -->
<!DOCTYPE svg PUBLIC "-//W3C//DTD SVG 1.1//EN" "http://www.w3.org/Graphics/SVG/1.1/DTD/svg11.dtd">
<svg version="1.1" id="Layer_1" xmlns="http://www.w3.org/2000/svg" xmlns:xlink="http://www.w3.org/1999/xlink" x="0px" y="0px"
	 viewBox="0 0 32 38" enable-background="new 0 0 32 38" xml:space="preserve">
<g>
	<path fill="#FFFFFF" d="M13.1,0h1.3v14.7c-1.3,0-2.6,0-3.8,0V8.2l-3.1,3.3H7.1L4,8.2v6.5c-1.3,0-2.6,0-3.8,0V0h1.4l5.7,6.4L13.1,0z
		 M12.7,13.3V3.5h-0.3L7.3,8.9l-5-5.4H2v9.7h0.2V3.8l5.1,5.4l5.2-5.4v9.4H12.7z"/>
	<path fill="#FFFFFF" d="M17.4,7.3c0-9.8,14.5-9.8,14.5,0C31.9,17.2,17.4,17.2,17.4,7.3z M30.1,7.3c0-7.6-11-7.6-11,0
		C19.1,15,30.1,15,30.1,7.3z M19.3,7.3c0,7.4,10.6,7.3,10.6,0C29.9,0.1,19.3,0,19.3,7.3z M28.2,7.3c0,5.1-7.1,5.1-7.1,0
		C21.1,2.2,28.2,2.2,28.2,7.3z"/>
	<path fill="#FFFFFF" d="M0.2,24.8c0-9.7,14.3-9.7,14.3,0C14.5,34.5,0.2,34.5,0.2,24.8z M12.8,24.8c0-7.5-10.8-7.5-10.8,0
		C1.9,32.3,12.8,32.3,12.8,24.8z M2.1,24.8c0,7.3,10.4,7.2,10.4,0C12.6,17.7,2.1,17.5,2.1,24.8z M10.8,24.8c0,5.1-7,5.1-7,0
		C3.8,19.8,10.8,19.8,10.8,24.8z"/>
	<path fill="#FFFFFF" d="M23.7,32.1h-6.3V17.6h6.3C34.6,17.7,34.6,32.1,23.7,32.1z M19.4,30.5h4.2c8.3,0,8.3-11.4,0-11.4h-4.2V30.5z
		 M23.6,19.4h-4v10.9h4C31.7,30.3,31.7,19.4,23.6,19.4z M21.6,21h2c5.3,0,5.3,7.7,0,7.7h-2V21z"/>
	<g>
		<path fill="#FFFFFF" d="M2,34.1c0.8,0,1.6,0.4,1.8,1.4c-0.3,0-0.6,0-0.9,0C2.7,35.2,2.5,35,2,35c-0.6,0-0.9,0.4-0.9,1
			c0,0.6,0.4,1,0.9,1c0.4,0,0.7-0.2,0.8-0.6c0.3,0,0.6,0,0.9,0C3.7,37.5,2.8,38,2,38c-1,0-1.9-0.6-1.9-1.9C0.1,34.8,1.1,34.1,2,34.1
			z"/>
		<path fill="#FFFFFF" d="M7.7,37.8v0.1H6.7L6,36.8H5.5v1.1c-0.3,0-0.7,0-1,0c0-1.3,0-2.5,0-3.8c0.5,0,1.1,0,1.7,0
			c1.5,0,1.7,1.8,0.8,2.4L7.7,37.8z M6.2,35c-0.2,0-0.5,0-0.7,0c0,0.3,0,0.6,0,0.9h0.7C6.7,35.9,6.8,35,6.2,35z"/>
		<path fill="#FFFFFF" d="M10.7,35c-0.6,0-0.8,0-1.4,0v0.5h1.3c0,0.3,0,0.6,0,0.9H9.3c0,0.2,0,0.4,0,0.7c0.6,0,0.9,0,1.4,0
			c0,0.3,0,0.6,0,0.9c-0.9,0-1.5,0-2.4,0c0-1.3,0-2.5,0-3.8c0.9,0,1.5,0,2.4,0C10.7,34.4,10.7,34.7,10.7,35z"/>
		<path fill="#FFFFFF" d="M13.7,37.4h-1.5L12,37.9h-0.9v-0.1l1.7-3.7h0.4l1.7,3.7v0.1h-0.9L13.7,37.4z M13,35.6l-0.4,1h0.9L13,35.6z
			"/>
		<path fill="#FFFFFF" d="M14.8,35c0-0.3,0-0.6,0-0.9h2.8c0,0.3,0,0.6,0,0.9h-0.9v2.9c-0.3,0-0.6,0-1,0V35H14.8z"/>
		<path fill="#FFFFFF" d="M19.9,37.1c0,0.3,0,0.5,0,0.8c-0.6,0-1.3,0-1.9,0c0-0.3,0-0.5,0-0.8h0.5V35H18c0-0.3,0-0.5,0-0.8
			c0.6,0,1.2,0,1.8,0c0,0.3,0,0.5,0,0.8h-0.4v2.1H19.9z"/>
		<path fill="#FFFFFF" d="M20.3,36c0-2.6,3.9-2.6,3.9,0C24.1,38.7,20.3,38.7,20.3,36z M23.2,36c0-1.4-1.9-1.4-1.9,0
			C21.3,37.4,23.2,37.4,23.2,36z"/>
		<path fill="#FFFFFF" d="M25.9,36.1v1.8c-0.3,0-0.7,0-1,0v-3.8h0.3l1.9,1.9v-1.8c0.3,0,0.7,0,1,0v3.8h-0.3L25.9,36.1z"/>
		<path fill="#FFFFFF" d="M30.9,36.8c0-0.3-0.3-0.3-0.7-0.3c-0.8-0.1-1.4-0.3-1.4-1.2c0-1.6,2.9-1.6,2.9,0c-0.3,0-0.6,0-0.9,0
			c0-0.5-1-0.5-1,0c0,0.3,0.3,0.3,0.6,0.4c0.7,0.1,1.5,0.2,1.5,1.1c0,1.6-3.1,1.6-3,0c0.3,0,0.6,0,0.9,0
			C29.7,37.2,30.9,37.2,30.9,36.8z"/>
	</g>
</g>
</svg>
